<svg xmlns="http://www.w3.org/2000/svg" viewBox="0 0 64 64">
  <rect width="64" height="64" rx="12" fill="#f8fafc"/>
  <path d="M20 18A10 10 0 0 0 8 28h6a4 4 0 0 1 6-4z" fill="#334155"/>
  <path d="M44 18A10 10 0 0 1 56 28h-6a4 4 0 0 0-6-4z" fill="#334155"/>
  <circle cx="32" cy="36" r="20" fill="#334155"/>
  <circle cx="32" cy="36" r="16" fill="#ffffff"/>
  <circle cx="32" cy="36" r="2.6" fill="#e11d48"/>
  <path d="M32 36V26" stroke="#e11d48" stroke-width="3.2" stroke-linecap="round"/>
  <path d="M32 36L40 40" stroke="#e11d48" stroke-width="3.2" stroke-linecap="round"/>
  <path d="M22 56L16 62" stroke="#334155" stroke-width="4" stroke-linecap="round"/>
  <path d="M42 56L48 62" stroke="#334155" stroke-width="4" stroke-linecap="round"/>
</svg>
